<svg xmlns="http://www.w3.org/2000/svg" width="155" height="69" viewBox="0 0 155 69" fill="none">
  <path d="M66.1296 63.758L71.0027 68.6841L75.9288 63.8109L63.763 51.5131L93.2848 22.3085L105.451 34.6064L110.377 29.7333L105.503 24.8072L110.429 19.9341L103.137 12.5623L108.063 7.6892L103.19 2.76317L98.2638 7.63627L90.9711 0.264449L86.0451 5.13756L81.172 0.211522L76.246 5.08463L88.4117 17.3825L58.8899 46.5871L46.7242 34.2892L41.7982 39.1623L46.6713 44.0883L41.7453 48.9614L49.0379 56.3333L44.1118 61.2064L48.9849 66.1324L53.911 61.2593L61.2036 68.6311L66.1296 63.758Z" fill="#F5F5F5"/>
  <path d="M29.6396 10L3.41125 32.4815C2.48002 33.2797 2.48002 34.7203 3.41125 35.5185L29.6396 58" stroke="white" stroke-width="5" stroke-linecap="round"/>
  <path d="M125.363 58.4162L151.249 35.5421C152.168 34.73 152.147 33.2895 151.204 32.5055L124.639 10.4217" stroke="white" stroke-width="5" stroke-linecap="round"/>
</svg>